<svg viewBox="0 0 1024 1176.463" xmlns="http://www.w3.org/2000/svg"><path d="M333.89 332.412c.386-.002.84-.004 1.296-.004 61.636 0 117.455 24.902 157.946 65.194l-.01-.01c34.15 32.07 65.462 65.422 98.373 98.772 5.665 5.487 9.18 13.163 9.18 21.66 0 4.207-.86 8.21-2.416 11.847l.074-.196c-4.31 11.417-14.756 19.566-27.21 20.468l-.103.006c-1.17.168-2.523.264-3.898.264-8.46 0-16.072-3.64-21.353-9.44l-.022-.022c-31.35-31.35-62.662-62.262-93.573-93.973-23.657-24.44-54.85-41.453-89.825-47.293l-.95-.13c-8.566-1.55-18.426-2.435-28.494-2.435-92.794 0-168.018 75.223-168.018 168.017 0 79.402 55.078 145.94 129.113 163.49l1.142.23c13.947 2.775 29.982 4.363 46.388 4.363 4.74 0 9.45-.133 14.124-.394l-.65.03c.345-.028.745-.043 1.15-.043 4.628 0 8.785 2.02 11.637 5.225l.015.016c19.314 18.915 39.788 37.79 59.862 56.623 1.2 1.2 2.8 2.4 4 3.6-2.4 0-4 .398-5.6.398h-91.976c-110.874-.023-203.67-77.402-227.353-181.1l-.3-1.566c-3.658-15.393-5.755-33.065-5.755-51.227 0-103.198 67.7-190.585 161.11-220.17l1.636-.446c20.948-6.883 45.098-11.137 70.152-11.75l.31-.007zM638.005 225.92c.772-.008 1.685-.012 2.6-.012 85.127 0 161.395 37.93 212.825 97.815l.312.373c43.446 50.046 69.924 115.84 69.924 187.817 0 13.343-.91 26.473-2.67 39.332l.166-1.493C904.365 669.858 815.455 765.264 700.234 791.51l-1.93.37c-18.754 4.29-40.29 6.75-62.4 6.75-14.098 0-27.962-1-41.526-2.932l1.555.182c-45.527-5.302-86.397-21.808-120.84-46.665l.754.518c-9.974-7.18-18.752-14.702-26.854-22.893l-.02-.02c-49.023-48.185-97.57-96.77-146.597-144.96-6.496-5.698-10.575-14.016-10.575-23.287 0-5.13 1.25-9.97 3.462-14.23l-.08.17c5.314-11.423 16.695-19.2 29.892-19.2 1.63 0 3.23.118 4.795.347l-.18-.02c8.417 1.336 15.664 5.57 20.836 11.628l.04.048c44.187 44.544 87.974 88.335 132.122 132.922 32.142 32.76 74.86 55.04 122.62 61.31l1.065.113c10.376 1.788 22.326 2.81 34.514 2.81 64.79 0 122.838-28.86 161.992-74.426l.237-.283c27.15-30.427 46.05-68.766 52.858-111.146l.167-1.26c2.18-11.372 3.425-24.45 3.425-37.82 0-50.55-17.816-96.937-47.51-133.226l.296.374c-40.877-52.397-104.026-85.772-174.97-85.772-44.484 0-85.904 13.123-120.6 35.71l.856-.523c-.87.512-1.918.815-3.036.815-.793 0-1.55-.152-2.245-.43l.04.015c-16.285-12.18-34.71-23.54-54.125-33.205l-2.1-.946c-.312-.345-.58-.74-.786-1.17l-.014-.03c14.625-12.25 31.088-23.194 48.697-32.218l1.49-.693c30.537-16.906 66.45-28.138 104.653-31.29l.957-.063q13.372-1.012 26.792-.96zm-14.756-67.7c-9.238.8-18.875 1.6-28.112 2.8-42.04 4.79-80.342 16.586-115.176 34.237l1.93-.886c-38.01 18.846-70.505 42.618-98.314 71l-.06.06c-1.09 1.292-2.713 2.106-4.524 2.106-.394 0-.78-.038-1.15-.112l.037.006c-13.2-2.043-28.428-3.21-43.927-3.21-128.422 0-238.127 80.136-281.837 193.13l-.702 2.064c-10.005 25.178-16.623 54.32-18.44 84.754l-.037.78c-.043 1.87-.333 3.652-.837 5.343l.037-.142v30.912c.8 8.038 2 15.676 2.8 23.713 4.255 34.647 14.174 66.125 28.85 94.762l-.74-1.59c32.048 64.604 84.82 114.89 149.468 142.97l1.93.748c28.714 13 62.08 21.51 97.164 23.673l.806.04c1.22 0 2.406.146 3.54.42l-.102-.02h342.94c7.32-.68 14.477-1.4 21.875-2.4 41.742-4.796 79.758-16.59 114.295-34.225l-1.888.876c60.848-30.14 110.348-75.25 144.935-130.632l.866-1.488c22.948-35.348 39.553-77.015 47.08-121.763l.267-1.92c2-13.597 3.2-27.673 4.838-41.35.043-1.867.333-3.65.837-5.34l-.037.143v-31.75c-.8-9.198-2-18.076-2-26.473-4.792-41.757-16.587-79.787-34.225-114.337l.875 1.89c-30.57-60.774-75.9-110.222-131.413-144.88l-1.508-.88c-35.138-22.66-76.5-39.122-120.893-46.71l-1.953-.276c-14.476-2.4-28.512-3.6-42.988-5.2-2.025-.075-3.946-.363-5.79-.84l.187.04z"/></svg>